<svg width="93" height="25" viewBox="0 0 93 25" fill="none" xmlns="http://www.w3.org/2000/svg">
<path d="M2.88 20.0791H0.22L5.5 5.4591H8.12L13.4 20.0791H10.7L9.52 16.6991H4.06L2.88 20.0791ZM6.48 9.8191L4.82 14.5391H8.78L7.1 9.8191C6.98 9.4391 6.84 8.9991 6.8 8.6991C6.74 8.9791 6.62 9.4191 6.48 9.8191ZM17.3333 20.0791H14.9133V5.1991H17.3333V20.0791ZM24.3128 20.3391C21.3728 20.3391 19.3128 18.1991 19.3128 15.1391C19.3128 12.0391 21.3328 9.8991 24.2328 9.8991C27.1928 9.8991 29.0728 11.8791 29.0728 14.9591V15.6991L21.6328 15.7191C21.8128 17.4591 22.7328 18.3391 24.3528 18.3391C25.6928 18.3391 26.5728 17.8191 26.8528 16.8791H29.1128C28.6928 19.0391 26.8928 20.3391 24.3128 20.3391ZM24.2528 11.8991C22.8128 11.8991 21.9328 12.6791 21.6928 14.1591H26.6528C26.6528 12.7991 25.7128 11.8991 24.2528 11.8991ZM32.2964 20.0791H29.5164L32.9164 15.2391L29.5164 10.1991H32.3564L34.5364 13.5591L36.6364 10.1991H39.3764L36.0164 15.1991L39.2764 20.0791H36.4764L34.3764 16.8191L32.2964 20.0791ZM49.1409 5.4591V13.1391L55.0609 5.4591H58.0809L53.2409 11.6991L58.1409 20.0791H55.1809L51.5609 13.8591L49.1409 16.9591V20.0791H46.5809V5.4591H49.1409ZM61.3375 20.3191C60.4575 20.3191 59.7175 19.5991 59.7175 18.7391C59.7175 17.8591 60.4575 17.1391 61.3375 17.1391C62.2175 17.1391 62.9575 17.8591 62.9575 18.7391C62.9575 19.5991 62.2175 20.3191 61.3375 20.3191Z" fill="black"/>
<path d="M81 2.8291C79.0716 2.8291 77.1866 3.40093 75.5832 4.47227C73.9798 5.54362 72.7301 7.06636 71.9922 8.84794C71.2542 10.6295 71.0611 12.5899 71.4373 14.4812C71.8136 16.3725 72.7422 18.1098 74.1057 19.4734C75.4693 20.837 77.2066 21.7656 79.0979 22.1418C80.9892 22.518 82.9496 22.3249 84.7312 21.5869C86.5127 20.849 88.0355 19.5993 89.1068 17.9959C90.1782 16.3925 90.75 14.5075 90.75 12.5791C90.7473 9.99408 89.7192 7.51571 87.8913 5.68783C86.0634 3.85994 83.585 2.83183 81 2.8291ZM85.2806 10.8597L80.0306 16.1097C79.961 16.1795 79.8783 16.2348 79.7872 16.2725C79.6962 16.3103 79.5986 16.3297 79.5 16.3297C79.4014 16.3297 79.3038 16.3103 79.2128 16.2725C79.1218 16.2348 79.039 16.1795 78.9694 16.1097L76.7194 13.8597C76.5786 13.719 76.4996 13.5281 76.4996 13.3291C76.4996 13.1301 76.5786 12.9392 76.7194 12.7985C76.8601 12.6577 77.051 12.5787 77.25 12.5787C77.449 12.5787 77.6399 12.6577 77.7806 12.7985L79.5 14.5188L84.2194 9.79848C84.2891 9.72879 84.3718 9.67352 84.4628 9.63581C84.5539 9.59809 84.6515 9.57868 84.75 9.57868C84.8486 9.57868 84.9461 9.59809 85.0372 9.63581C85.1282 9.67352 85.2109 9.72879 85.2806 9.79848C85.3503 9.86816 85.4056 9.95088 85.4433 10.0419C85.481 10.133 85.5004 10.2306 85.5004 10.3291C85.5004 10.4276 85.481 10.5252 85.4433 10.6163C85.4056 10.7073 85.3503 10.79 85.2806 10.8597Z" fill="#01AB31"/>
</svg>
