<svg width="111" height="25" viewBox="0 0 111 25" fill="none" xmlns="http://www.w3.org/2000/svg">
<path d="M0.4 15.9591V15.0991H2.86V15.9591C2.86 17.0791 3.48 17.9591 4.92 17.9591C6.36 17.9591 6.96 17.1391 6.96 15.8591V5.4591H9.52V15.9991C9.52 18.5791 7.72 20.3391 4.94 20.3391C1.94 20.3391 0.4 18.4791 0.4 15.9591ZM15.2352 20.3391C13.1352 20.3391 11.8552 19.1191 11.8552 17.2591C11.8552 15.4391 13.1752 14.2991 15.5152 14.1191L18.4752 13.8991V13.6791C18.4752 12.3391 17.6752 11.7991 16.4352 11.7991C14.9952 11.7991 14.1952 12.3991 14.1952 13.4391H12.1152C12.1152 11.2991 13.8752 9.8991 16.5552 9.8991C19.2152 9.8991 20.8552 11.3391 20.8552 14.0791V20.0791H18.7152L18.5352 18.6191C18.1152 19.6391 16.7752 20.3391 15.2352 20.3391ZM16.0352 18.4991C17.5352 18.4991 18.4952 17.5991 18.4952 16.0791V15.5591L16.4352 15.7191C14.9152 15.8591 14.3352 16.3591 14.3352 17.1591C14.3352 18.0591 14.9352 18.4991 16.0352 18.4991ZM25.6922 20.0791H23.2522V10.1991H25.4922L25.6922 11.3591C26.1922 10.5391 27.1922 9.8991 28.6122 9.8991C30.1122 9.8991 31.1522 10.6391 31.6722 11.7791C32.1722 10.6391 33.3322 9.8991 34.8322 9.8991C37.2322 9.8991 38.5522 11.3391 38.5522 13.6191V20.0791H36.1322V14.2591C36.1322 12.8391 35.3722 12.0991 34.2122 12.0991C33.0322 12.0991 32.1322 12.8591 32.1322 14.4791V20.0791H29.6922V14.2391C29.6922 12.8591 28.9522 12.1191 27.7922 12.1191C26.6322 12.1191 25.6922 12.8791 25.6922 14.4791V20.0791ZM45.3675 20.3391C42.4275 20.3391 40.3675 18.1991 40.3675 15.1391C40.3675 12.0391 42.3875 9.8991 45.2875 9.8991C48.2475 9.8991 50.1275 11.8791 50.1275 14.9591V15.6991L42.6875 15.7191C42.8675 17.4591 43.7875 18.3391 45.4075 18.3391C46.7475 18.3391 47.6275 17.8191 47.9075 16.8791H50.1675C49.7475 19.0391 47.9475 20.3391 45.3675 20.3391ZM45.3075 11.8991C43.8675 11.8991 42.9875 12.6791 42.7475 14.1591H47.7075C47.7075 12.7991 46.7675 11.8991 45.3075 11.8991ZM51.3203 17.0791H53.6403C53.6603 17.9391 54.3003 18.4791 55.4203 18.4791C56.5603 18.4791 57.1803 18.0191 57.1803 17.2991C57.1803 16.7991 56.9203 16.4391 56.0403 16.2391L54.2603 15.8191C52.4803 15.4191 51.6203 14.5791 51.6203 12.9991C51.6203 11.0591 53.2603 9.8991 55.5403 9.8991C57.7603 9.8991 59.2603 11.1791 59.2803 13.0991H56.9603C56.9403 12.2591 56.3803 11.7191 55.4403 11.7191C54.4803 11.7191 53.9203 12.1591 53.9203 12.8991C53.9203 13.4591 54.3603 13.8191 55.2003 14.0191L56.9803 14.4391C58.6403 14.8191 59.4803 15.5791 59.4803 17.0991C59.4803 19.0991 57.7803 20.3391 55.3403 20.3391C52.8803 20.3391 51.3203 19.0191 51.3203 17.0791ZM69.6488 5.4591V17.7191H75.7688V20.0791H67.0888V5.4591H69.6488ZM79.7359 20.3191C78.8559 20.3191 78.1159 19.5991 78.1159 18.7391C78.1159 17.8591 78.8559 17.1391 79.7359 17.1391C80.6159 17.1391 81.3559 17.8591 81.3559 18.7391C81.3559 19.5991 80.6159 20.3191 79.7359 20.3191Z" fill="black"/>
<path d="M99 2.8291C97.0716 2.8291 95.1866 3.40093 93.5832 4.47227C91.9798 5.54362 90.7301 7.06636 89.9922 8.84794C89.2542 10.6295 89.0611 12.5899 89.4373 14.4812C89.8136 16.3725 90.7422 18.1098 92.1057 19.4734C93.4693 20.837 95.2066 21.7656 97.0979 22.1418C98.9892 22.518 100.95 22.3249 102.731 21.5869C104.513 20.849 106.035 19.5993 107.107 17.9959C108.178 16.3925 108.75 14.5075 108.75 12.5791C108.747 9.99408 107.719 7.51571 105.891 5.68783C104.063 3.85994 101.585 2.83183 99 2.8291ZM103.281 10.8597L98.0306 16.1097C97.961 16.1795 97.8783 16.2348 97.7872 16.2725C97.6962 16.3103 97.5986 16.3297 97.5 16.3297C97.4014 16.3297 97.3038 16.3103 97.2128 16.2725C97.1218 16.2348 97.039 16.1795 96.9694 16.1097L94.7194 13.8597C94.5786 13.719 94.4996 13.5281 94.4996 13.3291C94.4996 13.1301 94.5786 12.9392 94.7194 12.7985C94.8601 12.6577 95.051 12.5787 95.25 12.5787C95.449 12.5787 95.6399 12.6577 95.7806 12.7985L97.5 14.5188L102.219 9.79848C102.289 9.72879 102.372 9.67352 102.463 9.63581C102.554 9.59809 102.651 9.57868 102.75 9.57868C102.849 9.57868 102.946 9.59809 103.037 9.63581C103.128 9.67352 103.211 9.72879 103.281 9.79848C103.35 9.86816 103.406 9.95088 103.443 10.0419C103.481 10.133 103.5 10.2306 103.5 10.3291C103.5 10.4276 103.481 10.5252 103.443 10.6163C103.406 10.7073 103.35 10.79 103.281 10.8597Z" fill="#01AB31"/>
</svg>
