<svg width="110" height="25" viewBox="0 0 110 25" fill="none" xmlns="http://www.w3.org/2000/svg">
<path d="M0.78 9.5391C0.78 6.9791 2.9 5.1991 5.98 5.1991C8.94 5.1991 10.82 6.8391 10.9 9.4791H8.34C8.28 8.2191 7.38 7.4791 5.94 7.4791C4.36 7.4791 3.34 8.2391 3.34 9.4591C3.34 10.4991 3.9 11.0791 5.12 11.3591L7.42 11.8591C9.92 12.3991 11.14 13.6791 11.14 15.8591C11.14 18.5791 9.02 20.3391 5.8 20.3391C2.68 20.3391 0.64 18.6791 0.58 16.0591H3.14C3.16 17.2991 4.16 18.0391 5.8 18.0391C7.5 18.0391 8.58 17.2991 8.58 16.0791C8.58 15.0991 8.08 14.5191 6.88 14.2591L4.56 13.7391C2.08 13.1991 0.78 11.7791 0.78 9.5391ZM16.0359 20.3391C13.9359 20.3391 12.6559 19.1191 12.6559 17.2591C12.6559 15.4391 13.9759 14.2991 16.3159 14.1191L19.2759 13.8991V13.6791C19.2759 12.3391 18.4759 11.7991 17.2359 11.7991C15.7959 11.7991 14.9959 12.3991 14.9959 13.4391H12.9159C12.9159 11.2991 14.6759 9.8991 17.3559 9.8991C20.0159 9.8991 21.6559 11.3391 21.6559 14.0791V20.0791H19.5159L19.3359 18.6191C18.9159 19.6391 17.5759 20.3391 16.0359 20.3391ZM16.8359 18.4991C18.3359 18.4991 19.2959 17.5991 19.2959 16.0791V15.5591L17.2359 15.7191C15.7159 15.8591 15.1359 16.3591 15.1359 17.1591C15.1359 18.0591 15.7359 18.4991 16.8359 18.4991ZM30.253 10.1591V12.4191H29.353C27.593 12.4191 26.493 13.3591 26.493 15.2791V20.0791H24.053V10.2191H26.353L26.493 11.6591C26.913 10.6791 27.853 10.0191 29.173 10.0191C29.513 10.0191 29.853 10.0591 30.253 10.1591ZM34.4539 20.3391C32.3539 20.3391 31.0739 19.1191 31.0739 17.2591C31.0739 15.4391 32.3939 14.2991 34.7339 14.1191L37.6939 13.8991V13.6791C37.6939 12.3391 36.8939 11.7991 35.6539 11.7991C34.2139 11.7991 33.4139 12.3991 33.4139 13.4391H31.3339C31.3339 11.2991 33.0939 9.8991 35.7739 9.8991C38.4339 9.8991 40.0739 11.3391 40.0739 14.0791V20.0791H37.9339L37.7539 18.6191C37.3339 19.6391 35.9939 20.3391 34.4539 20.3391ZM35.2539 18.4991C36.7539 18.4991 37.7139 17.5991 37.7139 16.0791V15.5591L35.6539 15.7191C34.1339 15.8591 33.5539 16.3591 33.5539 17.1591C33.5539 18.0591 34.1539 18.4991 35.2539 18.4991ZM44.9109 20.0791H42.4709V5.1991H44.9309V11.4791C45.5509 10.5191 46.7109 9.8991 48.1309 9.8991C50.5709 9.8991 51.8509 11.4391 51.8509 13.9991V20.0791H49.4109V14.5791C49.4109 12.9191 48.5909 12.1191 47.3509 12.1191C45.8109 12.1191 44.9109 13.1991 44.9109 14.6791V20.0791ZM62.4789 20.0791H59.9989V5.4591H62.4789L67.1989 17.0991L71.9189 5.4591H74.4389V20.0791H71.9589V15.5791C71.9589 12.6391 71.9589 11.7791 72.0989 10.7391L68.3789 20.0791H66.0189L62.3189 10.7591C62.4589 11.6391 62.4789 13.0191 62.4789 14.8391V20.0791ZM78.9547 20.3191C78.0747 20.3191 77.3347 19.5991 77.3347 18.7391C77.3347 17.8591 78.0747 17.1391 78.9547 17.1391C79.8347 17.1391 80.5747 17.8591 80.5747 18.7391C80.5747 19.5991 79.8347 20.3191 78.9547 20.3191Z" fill="black"/>
<path d="M98 2.8291C96.0716 2.8291 94.1866 3.40093 92.5832 4.47227C90.9798 5.54362 89.7301 7.06636 88.9922 8.84794C88.2542 10.6295 88.0611 12.5899 88.4373 14.4812C88.8136 16.3725 89.7422 18.1098 91.1057 19.4734C92.4693 20.837 94.2066 21.7656 96.0979 22.1418C97.9892 22.518 99.9496 22.3249 101.731 21.5869C103.513 20.849 105.035 19.5993 106.107 17.9959C107.178 16.3925 107.75 14.5075 107.75 12.5791C107.747 9.99408 106.719 7.51571 104.891 5.68783C103.063 3.85994 100.585 2.83183 98 2.8291ZM102.281 10.8597L97.0306 16.1097C96.961 16.1795 96.8783 16.2348 96.7872 16.2725C96.6962 16.3103 96.5986 16.3297 96.5 16.3297C96.4014 16.3297 96.3038 16.3103 96.2128 16.2725C96.1218 16.2348 96.039 16.1795 95.9694 16.1097L93.7194 13.8597C93.5786 13.719 93.4996 13.5281 93.4996 13.3291C93.4996 13.1301 93.5786 12.9392 93.7194 12.7985C93.8601 12.6577 94.051 12.5787 94.25 12.5787C94.449 12.5787 94.6399 12.6577 94.7806 12.7985L96.5 14.5188L101.219 9.79848C101.289 9.72879 101.372 9.67352 101.463 9.63581C101.554 9.59809 101.651 9.57868 101.75 9.57868C101.849 9.57868 101.946 9.59809 102.037 9.63581C102.128 9.67352 102.211 9.72879 102.281 9.79848C102.35 9.86816 102.406 9.95088 102.443 10.0419C102.481 10.133 102.5 10.2306 102.5 10.3291C102.5 10.4276 102.481 10.5252 102.443 10.6163C102.406 10.7073 102.35 10.79 102.281 10.8597Z" fill="#01AB31"/>
</svg>
